<mxfile host="app.diagrams.net" modified="2022-05-02T08:10:37.691Z" agent="5.0 (Macintosh; Intel Mac OS X 10_15_7) AppleWebKit/537.36 (KHTML, like Gecko) Chrome/100.0.4896.127 Safari/537.36" etag="bQnMcc5bPriYgO1wg52F" version="17.4.6" type="github">
  <diagram id="M7OaAag8aHC9Nm9bBw7A" name="Page-1">
    <mxGraphModel dx="1426" dy="689" grid="1" gridSize="10" guides="1" tooltips="1" connect="1" arrows="1" fold="1" page="1" pageScale="1" pageWidth="2336" pageHeight="1654" math="0" shadow="0">
      <root>
        <mxCell id="0" />
        <mxCell id="1" parent="0" />
        <mxCell id="mULTs34jnNCoHxZ4A-0O-59" style="edgeStyle=orthogonalEdgeStyle;rounded=0;orthogonalLoop=1;jettySize=auto;html=1;exitX=0.5;exitY=1;exitDx=0;exitDy=0;exitPerimeter=0;entryX=0.5;entryY=0;entryDx=0;entryDy=0;" parent="1" source="mULTs34jnNCoHxZ4A-0O-35" target="mULTs34jnNCoHxZ4A-0O-38" edge="1">
          <mxGeometry relative="1" as="geometry" />
        </mxCell>
        <mxCell id="mULTs34jnNCoHxZ4A-0O-35" value="开始" style="strokeWidth=2;html=1;shape=mxgraph.flowchart.terminator;whiteSpace=wrap;fillColor=#eeeeee;strokeColor=#36393d;" parent="1" vertex="1">
          <mxGeometry x="630" y="130" width="60" height="30" as="geometry" />
        </mxCell>
        <mxCell id="mULTs34jnNCoHxZ4A-0O-36" value="结束" style="strokeWidth=2;html=1;shape=mxgraph.flowchart.terminator;whiteSpace=wrap;fillColor=#eeeeee;strokeColor=#36393d;" parent="1" vertex="1">
          <mxGeometry x="630" y="680" width="60" height="30" as="geometry" />
        </mxCell>
        <mxCell id="mULTs34jnNCoHxZ4A-0O-42" style="edgeStyle=orthogonalEdgeStyle;rounded=0;orthogonalLoop=1;jettySize=auto;html=1;exitX=0.5;exitY=1;exitDx=0;exitDy=0;entryX=0.5;entryY=0;entryDx=0;entryDy=0;" parent="1" source="mULTs34jnNCoHxZ4A-0O-38" target="mULTs34jnNCoHxZ4A-0O-39" edge="1">
          <mxGeometry relative="1" as="geometry" />
        </mxCell>
        <mxCell id="mULTs34jnNCoHxZ4A-0O-38" value="无序序列" style="shape=parallelogram;html=1;strokeWidth=2;perimeter=parallelogramPerimeter;whiteSpace=wrap;rounded=1;arcSize=12;size=0.23;fillColor=#ffff88;strokeColor=#36393d;" parent="1" vertex="1">
          <mxGeometry x="600" y="190" width="120" height="40" as="geometry" />
        </mxCell>
        <mxCell id="mULTs34jnNCoHxZ4A-0O-41" style="edgeStyle=orthogonalEdgeStyle;rounded=0;orthogonalLoop=1;jettySize=auto;html=1;exitX=0.5;exitY=1;exitDx=0;exitDy=0;entryX=0.5;entryY=0;entryDx=0;entryDy=0;" parent="1" source="mULTs34jnNCoHxZ4A-0O-39" target="mULTs34jnNCoHxZ4A-0O-57" edge="1">
          <mxGeometry relative="1" as="geometry" />
        </mxCell>
        <mxCell id="mULTs34jnNCoHxZ4A-0O-39" value="std::sort()" style="rounded=1;whiteSpace=wrap;html=1;absoluteArcSize=1;arcSize=14;strokeWidth=2;" parent="1" vertex="1">
          <mxGeometry x="610" y="270" width="100" height="30" as="geometry" />
        </mxCell>
        <mxCell id="mULTs34jnNCoHxZ4A-0O-46" value="Y" style="edgeStyle=orthogonalEdgeStyle;rounded=0;orthogonalLoop=1;jettySize=auto;html=1;exitX=1;exitY=0.5;exitDx=0;exitDy=0;exitPerimeter=0;entryX=0;entryY=0.5;entryDx=0;entryDy=0;entryPerimeter=0;" parent="1" source="mULTs34jnNCoHxZ4A-0O-40" target="mULTs34jnNCoHxZ4A-0O-45" edge="1">
          <mxGeometry relative="1" as="geometry" />
        </mxCell>
        <mxCell id="mULTs34jnNCoHxZ4A-0O-51" value="N" style="edgeStyle=orthogonalEdgeStyle;rounded=0;orthogonalLoop=1;jettySize=auto;html=1;exitX=0.5;exitY=1;exitDx=0;exitDy=0;exitPerimeter=0;" parent="1" source="mULTs34jnNCoHxZ4A-0O-40" target="mULTs34jnNCoHxZ4A-0O-50" edge="1">
          <mxGeometry relative="1" as="geometry" />
        </mxCell>
        <mxCell id="mULTs34jnNCoHxZ4A-0O-40" value="元素数量 &amp;gt; 16?" style="strokeWidth=2;html=1;shape=mxgraph.flowchart.decision;whiteSpace=wrap;fillColor=#ffcccc;strokeColor=#36393d;" parent="1" vertex="1">
          <mxGeometry x="575" y="420" width="170" height="70" as="geometry" />
        </mxCell>
        <mxCell id="mULTs34jnNCoHxZ4A-0O-54" style="edgeStyle=orthogonalEdgeStyle;rounded=0;orthogonalLoop=1;jettySize=auto;html=1;exitX=0.5;exitY=1;exitDx=0;exitDy=0;entryX=1;entryY=0.75;entryDx=0;entryDy=0;" parent="1" source="mULTs34jnNCoHxZ4A-0O-43" target="mULTs34jnNCoHxZ4A-0O-57" edge="1">
          <mxGeometry relative="1" as="geometry">
            <Array as="points">
              <mxPoint x="1060" y="590" />
              <mxPoint x="1130" y="590" />
              <mxPoint x="1130" y="373" />
            </Array>
          </mxGeometry>
        </mxCell>
        <mxCell id="mULTs34jnNCoHxZ4A-0O-43" value="快速排序" style="rounded=1;whiteSpace=wrap;html=1;absoluteArcSize=1;arcSize=14;strokeWidth=2;fillColor=#cce5ff;strokeColor=#36393d;" parent="1" vertex="1">
          <mxGeometry x="1010" y="540" width="100" height="30" as="geometry" />
        </mxCell>
        <mxCell id="mULTs34jnNCoHxZ4A-0O-49" value="Y" style="edgeStyle=orthogonalEdgeStyle;rounded=0;orthogonalLoop=1;jettySize=auto;html=1;exitX=0.5;exitY=1;exitDx=0;exitDy=0;exitPerimeter=0;entryX=0.5;entryY=0;entryDx=0;entryDy=0;" parent="1" source="mULTs34jnNCoHxZ4A-0O-45" target="mULTs34jnNCoHxZ4A-0O-48" edge="1">
          <mxGeometry relative="1" as="geometry" />
        </mxCell>
        <mxCell id="mULTs34jnNCoHxZ4A-0O-52" value="N" style="edgeStyle=orthogonalEdgeStyle;rounded=0;orthogonalLoop=1;jettySize=auto;html=1;exitX=1;exitY=0.5;exitDx=0;exitDy=0;exitPerimeter=0;entryX=0.5;entryY=0;entryDx=0;entryDy=0;" parent="1" source="mULTs34jnNCoHxZ4A-0O-45" target="mULTs34jnNCoHxZ4A-0O-43" edge="1">
          <mxGeometry x="-0.4839" relative="1" as="geometry">
            <mxPoint as="offset" />
          </mxGeometry>
        </mxCell>
        <mxCell id="mULTs34jnNCoHxZ4A-0O-45" value="递归深度超过阈值？" style="strokeWidth=2;html=1;shape=mxgraph.flowchart.decision;whiteSpace=wrap;fillColor=#ffcccc;strokeColor=#36393d;" parent="1" vertex="1">
          <mxGeometry x="820" y="420" width="170" height="70" as="geometry" />
        </mxCell>
        <mxCell id="mULTs34jnNCoHxZ4A-0O-56" style="edgeStyle=orthogonalEdgeStyle;rounded=0;orthogonalLoop=1;jettySize=auto;html=1;exitX=0.5;exitY=1;exitDx=0;exitDy=0;entryX=1;entryY=0.25;entryDx=0;entryDy=0;" parent="1" source="mULTs34jnNCoHxZ4A-0O-48" target="mULTs34jnNCoHxZ4A-0O-57" edge="1">
          <mxGeometry relative="1" as="geometry">
            <Array as="points">
              <mxPoint x="905" y="610" />
              <mxPoint x="1150" y="610" />
              <mxPoint x="1150" y="358" />
              <mxPoint x="780" y="358" />
            </Array>
          </mxGeometry>
        </mxCell>
        <mxCell id="mULTs34jnNCoHxZ4A-0O-48" value="堆排序" style="rounded=1;whiteSpace=wrap;html=1;absoluteArcSize=1;arcSize=14;strokeWidth=2;fillColor=#cce5ff;strokeColor=#36393d;" parent="1" vertex="1">
          <mxGeometry x="855" y="540" width="100" height="30" as="geometry" />
        </mxCell>
        <mxCell id="mULTs34jnNCoHxZ4A-0O-55" style="edgeStyle=orthogonalEdgeStyle;rounded=0;orthogonalLoop=1;jettySize=auto;html=1;exitX=0.5;exitY=1;exitDx=0;exitDy=0;startArrow=none;" parent="1" source="mULTs34jnNCoHxZ4A-0O-60" target="mULTs34jnNCoHxZ4A-0O-36" edge="1">
          <mxGeometry relative="1" as="geometry" />
        </mxCell>
        <mxCell id="mULTs34jnNCoHxZ4A-0O-62" style="edgeStyle=orthogonalEdgeStyle;rounded=0;orthogonalLoop=1;jettySize=auto;html=1;exitX=0.5;exitY=1;exitDx=0;exitDy=0;entryX=0.5;entryY=0;entryDx=0;entryDy=0;" parent="1" source="mULTs34jnNCoHxZ4A-0O-50" target="mULTs34jnNCoHxZ4A-0O-60" edge="1">
          <mxGeometry relative="1" as="geometry" />
        </mxCell>
        <mxCell id="mULTs34jnNCoHxZ4A-0O-50" value="插入排序" style="rounded=1;whiteSpace=wrap;html=1;absoluteArcSize=1;arcSize=14;strokeWidth=2;" parent="1" vertex="1">
          <mxGeometry x="610" y="540" width="100" height="30" as="geometry" />
        </mxCell>
        <mxCell id="mULTs34jnNCoHxZ4A-0O-58" style="edgeStyle=orthogonalEdgeStyle;rounded=0;orthogonalLoop=1;jettySize=auto;html=1;exitX=0.5;exitY=1;exitDx=0;exitDy=0;" parent="1" source="mULTs34jnNCoHxZ4A-0O-57" target="mULTs34jnNCoHxZ4A-0O-40" edge="1">
          <mxGeometry relative="1" as="geometry" />
        </mxCell>
        <mxCell id="mULTs34jnNCoHxZ4A-0O-57" value="内省式排序" style="rounded=1;whiteSpace=wrap;html=1;absoluteArcSize=1;arcSize=14;strokeWidth=2;" parent="1" vertex="1">
          <mxGeometry x="610" y="350" width="100" height="30" as="geometry" />
        </mxCell>
        <mxCell id="mULTs34jnNCoHxZ4A-0O-60" value="有序序列" style="shape=parallelogram;html=1;strokeWidth=2;perimeter=parallelogramPerimeter;whiteSpace=wrap;rounded=1;arcSize=12;size=0.23;fillColor=#ffff88;strokeColor=#36393d;" parent="1" vertex="1">
          <mxGeometry x="600" y="610" width="120" height="40" as="geometry" />
        </mxCell>
        <mxCell id="mULTs34jnNCoHxZ4A-0O-63" value="std::sort()" style="rounded=1;whiteSpace=wrap;html=1;absoluteArcSize=1;arcSize=14;strokeWidth=2;fillColor=#cce5ff;strokeColor=#36393d;" parent="1" vertex="1">
          <mxGeometry x="610" y="270" width="100" height="30" as="geometry" />
        </mxCell>
        <mxCell id="mULTs34jnNCoHxZ4A-0O-64" value="内省式排序" style="rounded=1;whiteSpace=wrap;html=1;absoluteArcSize=1;arcSize=14;strokeWidth=2;fillColor=#cce5ff;strokeColor=#36393d;" parent="1" vertex="1">
          <mxGeometry x="610" y="350" width="100" height="30" as="geometry" />
        </mxCell>
        <mxCell id="mULTs34jnNCoHxZ4A-0O-65" value="插入排序" style="rounded=1;whiteSpace=wrap;html=1;absoluteArcSize=1;arcSize=14;strokeWidth=2;fillColor=#cce5ff;strokeColor=#36393d;" parent="1" vertex="1">
          <mxGeometry x="610" y="540" width="100" height="30" as="geometry" />
        </mxCell>
      </root>
    </mxGraphModel>
  </diagram>
</mxfile>
